<?xml version="1.0" standalone="no"?>
<!DOCTYPE svg PUBLIC "-//W3C//DTD SVG 20010904//EN"
 "http://www.w3.org/TR/2001/REC-SVG-20010904/DTD/svg10.dtd">
<svg version="1.0" xmlns="http://www.w3.org/2000/svg"
 width="560.000000pt" height="560.000000pt" viewBox="0 0 560.000000 560.000000"
 preserveAspectRatio="xMidYMid meet">
<metadata>
Created by potrace 1.11, written by Peter Selinger 2001-2013
</metadata>
<g transform="translate(0.000000,560.000000) scale(0.100000,-0.100000)"
fill="#000000" stroke="none">
<path d="M2248 5473 c5 -10 25 -52 46 -93 20 -41 51 -91 68 -109 l32 -34 -24
-16 c-39 -27 -241 -109 -312 -127 l-67 -18 83 -37 c46 -21 97 -41 112 -44 16
-4 36 -9 44 -12 28 -10 -21 -22 -95 -23 -63 -1 -67 -3 -40 -12 16 -6 42 -19
57 -28 l27 -16 -49 -38 c-63 -48 -153 -85 -205 -86 l-40 0 37 -25 c20 -14 41
-25 45 -25 4 0 24 -14 43 -30 19 -17 50 -36 68 -42 23 -9 31 -17 27 -28 -4 -8
-9 -36 -12 -61 -4 -37 -11 -49 -34 -63 -16 -10 -39 -31 -52 -48 -12 -16 -36
-36 -53 -43 -40 -17 -111 -80 -129 -116 -11 -19 -30 -32 -67 -45 -66 -21 -215
-122 -254 -171 -60 -75 -108 -187 -118 -274 -4 -35 -13 -52 -46 -82 -59 -56
-115 -129 -146 -194 -25 -51 -28 -69 -27 -146 1 -73 -3 -98 -23 -143 -13 -30
-22 -54 -20 -54 2 0 -2 -21 -10 -47 -22 -72 -19 -198 6 -274 20 -59 21 -83 7
-159 -10 -49 -20 -125 -20 -142 1 -10 1 -25 2 -33 1 -9 19 -24 42 -34 24 -11
51 -34 66 -57 80 -119 171 -196 268 -227 28 -9 97 -21 155 -27 58 -6 134 -17
170 -25 36 -7 97 -18 135 -25 l70 -11 -3 -43 c-3 -34 -9 -46 -27 -54 -16 -8
-23 -18 -20 -31 2 -11 -5 -30 -17 -43 -11 -13 -25 -36 -32 -53 -7 -16 -64
-115 -126 -219 -207 -350 -279 -484 -314 -590 -9 -27 -37 -130 -61 -230 -25
-99 -50 -195 -55 -212 -6 -17 -12 -40 -15 -50 -2 -10 -22 -91 -44 -179 -73
-287 -71 -266 -40 -360 l21 -65 435 0 435 0 -6 26 c-19 76 -19 83 5 103 23 19
23 19 5 53 l-19 35 28 49 c37 65 136 208 147 212 4 2 8 8 8 13 0 5 15 31 33
57 51 73 98 155 177 307 40 77 83 158 95 180 34 63 104 229 121 285 9 30 20
50 27 48 18 -6 53 -80 103 -223 70 -199 127 -313 288 -575 78 -127 109 -173
143 -209 12 -13 38 -46 58 -75 19 -28 72 -103 118 -166 l84 -115 412 -3 c226
-1 411 0 411 4 0 6 -5 17 -95 239 -50 125 -85 233 -98 305 -27 147 -195 627
-277 791 -43 85 -185 326 -246 417 -13 18 -32 63 -43 100 -33 109 -61 215 -61
233 0 19 216 82 361 104 121 19 120 18 216 50 102 34 166 88 256 218 36 51 77
102 91 114 35 30 33 61 -8 165 -31 80 -33 95 -34 205 -1 65 -7 152 -13 193 -7
41 -13 95 -15 119 -7 136 -48 236 -127 312 -27 27 -53 49 -58 49 -5 0 -9 15
-9 34 0 53 -19 137 -40 181 -32 63 -167 212 -257 283 -71 55 -215 142 -226
135 -6 -3 -7 -1 -3 5 4 7 2 12 -3 12 -6 0 -11 6 -11 13 0 35 -152 169 -265
234 -36 20 -37 23 -15 23 14 0 52 13 85 29 l60 28 -55 -3 c-101 -5 -145 30
-180 141 -7 22 -38 87 -68 144 -49 95 -52 102 -25 80 44 -37 104 -92 125 -113
10 -11 18 -15 18 -9 0 13 -72 124 -104 160 -51 58 -66 76 -64 78 2 2 26 0 53
-4 54 -6 150 2 125 11 -8 3 -33 11 -54 18 -41 13 -123 60 -191 110 -22 16 -47
29 -56 30 -9 0 -22 7 -30 16 -7 9 -21 13 -32 10 -11 -3 -32 3 -46 12 -14 9
-47 28 -73 42 -41 21 -50 22 -71 11 -20 -10 -30 -10 -62 3 -47 20 -79 20 -95
1 -12 -14 -16 -13 -36 6 -19 18 -27 20 -53 11 -41 -14 -170 31 -262 92 -76 51
-84 54 -71 29z m-80 -871 c-8 -31 -18 -46 -40 -57 -26 -13 -29 -13 -24 0 6 16
70 104 73 101 1 -1 -3 -21 -9 -44z"/>
</g>
</svg>
